<svg xmlns="http://www.w3.org/2000/svg" viewBox="0 0 1000 280" role="img" aria-labelledby="title desc" shape-rendering="crispEdges">
  <title id="title">AuthzTrace</title>
  <desc id="desc">AuthzTrace with an animated authorization testing message.</desc>
  <defs>
    <g id="upper-a"><rect x="1" y="0" width="3" height="1"/><rect x="0" y="1" width="1" height="6"/><rect x="4" y="1" width="1" height="6"/><rect x="1" y="3" width="3" height="1"/></g>
    <g id="lower-u"><rect x="0" y="2" width="1" height="4"/><rect x="4" y="2" width="1" height="4"/><rect x="1" y="6" width="3" height="1"/></g>
    <g id="lower-t"><rect x="2" y="0" width="1" height="6"/><rect x="0" y="2" width="5" height="1"/><rect x="3" y="6" width="2" height="1"/></g>
    <g id="lower-h"><rect x="0" y="0" width="1" height="7"/><rect x="1" y="2" width="3" height="1"/><rect x="4" y="3" width="1" height="4"/></g>
    <g id="lower-z"><rect x="0" y="2" width="5" height="1"/><polygon points="4,3 5,3 1,6 0,6"/><rect x="0" y="6" width="5" height="1"/></g>
    <g id="upper-t"><rect x="0" y="0" width="5" height="1"/><rect x="2" y="1" width="1" height="6"/></g>
    <g id="lower-r"><rect x="0" y="2" width="1" height="5"/><rect x="1" y="2" width="3" height="1"/><rect x="4" y="3" width="1" height="1"/></g>
    <g id="lower-a"><rect x="1" y="2" width="3" height="1"/><rect x="4" y="3" width="1" height="4"/><rect x="1" y="4" width="3" height="1"/><rect x="0" y="5" width="1" height="1"/><rect x="1" y="6" width="3" height="1"/></g>
    <g id="lower-c"><rect x="1" y="2" width="4" height="1"/><rect x="0" y="3" width="1" height="3"/><rect x="1" y="6" width="4" height="1"/></g>
    <g id="lower-e"><rect x="1" y="2" width="3" height="1"/><rect x="0" y="3" width="1" height="3"/><rect x="4" y="3" width="1" height="1"/><rect x="1" y="4" width="4" height="1"/><rect x="1" y="6" width="4" height="1"/></g>
    <g id="word">
      <use href="#upper-a" transform="translate(110 40) scale(13)"/>
      <use href="#lower-u" transform="translate(190 40) scale(13)"/>
      <use href="#lower-t" transform="translate(270 40) scale(13)"/>
      <use href="#lower-h" transform="translate(350 40) scale(13)"/>
      <use href="#lower-z" transform="translate(430 40) scale(13)"/>
      <use href="#upper-t" transform="translate(510 40) scale(13)"/>
      <use href="#lower-r" transform="translate(590 40) scale(13)"/>
      <use href="#lower-a" transform="translate(670 40) scale(13)"/>
      <use href="#lower-c" transform="translate(750 40) scale(13)"/>
      <use href="#lower-e" transform="translate(830 40) scale(13)"/>
    </g>
    <clipPath id="typing-line-one">
      <rect x="145" y="181" width="650" height="32">
        <animate attributeName="width" dur="9s" repeatCount="indefinite" values="0;0;570;570;570;0" keyTimes="0;0.04;0.38;0.92;0.97;1"/>
      </rect>
    </clipPath>
    <clipPath id="typing-line-two">
      <rect x="145" y="218" width="650" height="32">
        <animate attributeName="width" dur="9s" repeatCount="indefinite" values="0;0;0;630;630;0" keyTimes="0;0.38;0.42;0.80;0.92;1"/>
      </rect>
    </clipPath>
  </defs>
  <rect width="1000" height="280" rx="8" fill="#161b22"/>
  <use href="#word" transform="translate(6 7)" fill="#0d1117"/>
  <use href="#word" transform="translate(-2 0)" fill="#58a6ff"/>
  <use href="#word" transform="translate(2 2)" fill="#f0883e"/>
  <use href="#word" fill="#f0f6fc"/>
  <line x1="100" y1="165" x2="900" y2="165" stroke="#30363d"/>
  <g font-family="'JetBrainsMono Nerd Font Mono', 'JetBrains Mono', 'Fira Code', monospace" font-size="19">
    <text x="110" y="204" fill="#58a6ff">&gt;</text>
    <text x="145" y="204" fill="#f0f6fc" clip-path="url(#typing-line-one)">Authorization tests for the #1 API vulnerability.</text>
    <text x="110" y="241" fill="#58a6ff">&gt;
      <animate attributeName="opacity" dur="9s" repeatCount="indefinite" values="0;0;1;1;0" keyTimes="0;0.40;0.42;0.96;1" calcMode="discrete"/>
    </text>
    <text x="145" y="241" fill="#c9d1d9" clip-path="url(#typing-line-two)">Prove in CI that user A cannot touch user B's data.</text>
  </g>
  <rect x="715" y="183" width="10" height="25" fill="#58a6ff" opacity="0">
    <animate attributeName="x" dur="9s" repeatCount="indefinite" values="145;145;715;715;715;145" keyTimes="0;0.04;0.38;0.40;0.97;1"/>
    <animate attributeName="opacity" dur="9s" repeatCount="indefinite" values="1;1;1;0;0;0" keyTimes="0;0.04;0.38;0.40;0.97;1" calcMode="discrete"/>
  </rect>
  <rect x="775" y="220" width="10" height="25" fill="#58a6ff" opacity="0">
    <animate attributeName="x" dur="9s" repeatCount="indefinite" values="145;145;145;775;775;145" keyTimes="0;0.40;0.42;0.80;0.97;1"/>
    <animate attributeName="opacity" dur="9s" repeatCount="indefinite" values="0;0;1;1;0;1;0;0" keyTimes="0;0.40;0.42;0.82;0.86;0.90;0.94;1" calcMode="discrete"/>
  </rect>
</svg>
